<svg width="40" height="40" viewBox="0 0 40 40" fill="none" xmlns="http://www.w3.org/2000/svg">
<g id="Mode">
<rect width="40" height="40" rx="4" fill="white"/>
<path id="Moon" d="M27.8628 21.167C27.7227 22.6833 27.1536 24.1283 26.2222 25.333C25.2908 26.5377 24.0356 27.4522 22.6034 27.9695C21.1712 28.4868 19.6213 28.5855 18.135 28.2541C16.6488 27.9227 15.2877 27.1749 14.2109 26.0982C13.1342 25.0214 12.3864 23.6603 12.055 22.174C11.7236 20.6878 11.8223 19.1379 12.3396 17.7057C12.8569 16.2735 13.7714 15.0183 14.9761 14.0869C16.1808 13.1555 17.6258 12.5864 19.1421 12.4463C18.2543 13.6473 17.8271 15.127 17.9382 16.6164C18.0493 18.1057 18.6912 19.5058 19.7473 20.5618C20.8033 21.6179 22.2033 22.2598 23.6927 22.3709C25.182 22.4819 26.6618 22.0548 27.8628 21.167Z" stroke="#1E2122" stroke-width="2" stroke-linecap="round" stroke-linejoin="round"/>
</g>
</svg>
